<?xml version="1.0" encoding="utf-8"?>
<!-- Generator: Adobe Illustrator 22.1.0, SVG Export Plug-In . SVG Version: 6.00 Build 0)  -->
<svg version="1.1" id="Layer_1" xmlns="http://www.w3.org/2000/svg" xmlns:xlink="http://www.w3.org/1999/xlink" x="0px" y="0px"
	 viewBox="0 0 300 165" style="enable-background:new 0 0 300 165;" xml:space="preserve">
<style type="text/css">
	.st0{fill:#1B8B43;}
	.st1{fill:#FFFFFF;}
</style>
<g id="XMLID_1036_">
	<g id="XMLID_1201_">
		<g id="XMLID_1202_">
			<rect id="XMLID_1236_" x="146.1" y="67.9" class="st0" width="7.3" height="5.2"/>
			<polygon id="XMLID_1235_" class="st0" points="285.9,45.4 296.2,35.1 264.1,3 228.7,38.4 193.3,3 161.2,35.1 171.5,45.4 			"/>
			<polygon id="XMLID_1234_" class="st0" points="171.5,95.6 161.2,105.9 193.3,138 228.7,102.6 264.1,138 296.2,105.9 285.9,95.6 
							"/>
			<polygon id="XMLID_1233_" class="st0" points="128.1,45.4 138.4,35.1 106.3,3 70.9,38.4 35.5,3 3.4,35.1 13.7,45.4 			"/>
			<polygon id="XMLID_1232_" class="st0" points="13.7,95.6 3.4,105.9 35.5,138 70.9,102.6 106.3,138 138.4,105.9 128.1,95.6 			"/>
			<polygon id="XMLID_1231_" class="st1" points="18.5,81.8 27.2,59.2 20.3,59.2 15.2,73.5 10.1,59.2 3.1,59.2 11.8,81.8 			"/>
			<polygon id="XMLID_1230_" class="st1" points="49.6,64.4 49.6,59.2 33.3,59.2 33.3,81.8 50.2,81.8 50.2,76.6 39.5,76.6 
				39.5,73.1 48.6,73.1 48.6,67.9 39.5,67.9 39.5,64.4 			"/>
			<rect id="XMLID_1212_" x="57.3" y="59.2" class="st1" width="6.2" height="22.6"/>
			<polygon id="XMLID_1211_" class="st1" points="76.2,59.2 70.8,59.2 70.8,81.8 77,81.8 77,69.8 84.8,81.8 90.3,81.8 90.3,59.2 
				84.1,59.2 84.1,71.2 			"/>
			<polygon id="XMLID_1210_" class="st1" points="109.1,81.8 109.1,64.4 115.7,64.4 115.7,59.2 96.3,59.2 96.3,64.4 103,64.4 
				103,81.8 			"/>
			<polygon id="XMLID_1209_" class="st1" points="127.9,73.1 137.1,73.1 137.1,67.9 127.9,67.9 127.9,64.4 138.1,64.4 138.1,59.2 
				121.8,59.2 121.8,81.8 138.7,81.8 138.7,76.6 127.9,76.6 			"/>
			<polygon id="XMLID_1208_" class="st1" points="281,59.2 272.3,81.8 279.3,81.8 284.4,67.5 289.5,81.8 296.4,81.8 287.8,59.2 			
				"/>
			<polygon id="XMLID_1207_" class="st1" points="249.9,76.6 249.9,81.8 266.3,81.8 266.3,59.2 249.4,59.2 249.4,64.4 260.1,64.4 
				260.1,67.9 250.9,67.9 250.9,73.1 260.1,73.1 260.1,76.6 			"/>
			<rect id="XMLID_1206_" x="236.1" y="59.2" class="st1" width="6.2" height="22.6"/>
			<polygon id="XMLID_1205_" class="st1" points="214.8,59.2 209.3,59.2 209.3,81.8 215.5,81.8 215.5,69.8 223.3,81.8 228.8,81.8 
				228.8,59.2 222.6,59.2 222.6,71.2 			"/>
			<polygon id="XMLID_1204_" class="st1" points="190.4,59.2 190.4,76.6 183.8,76.6 183.8,81.8 203.2,81.8 203.2,76.6 196.6,76.6 
				196.6,59.2 			"/>
			<polygon id="XMLID_1203_" class="st1" points="171.6,67.9 162.5,67.9 162.5,73.1 171.6,73.1 171.6,76.6 161.5,76.6 161.5,81.8 
				177.8,81.8 177.8,59.2 160.9,59.2 160.9,64.4 171.6,64.4 			"/>
		</g>
	</g>
	<g id="XMLID_1037_">
		<g>
			<path id="XMLID_272_" class="st1" d="M76,161.6v1.6h-5.2v-7h5.1v1.6h-3.1v1.1h2.8v1.6h-2.8v1.1H76z"/>
			<path id="XMLID_270_" class="st1" d="M86.9,161.3c-0.1,2-2.1,2.2-3.3,2c-1.1-0.1-2.1-0.6-2.7-1l0.9-1.4c0.8,0.9,2.8,1.2,3,0.4
				c0.3-1.3-3.7-0.6-3.4-3.4c0.1-1,0.9-2,3-1.9c1.4,0.1,2,0.6,2.2,0.7l-0.7,1.5c-0.6-0.6-2.4-1-2.6-0.1
				C83.1,159.2,87,158.8,86.9,161.3z"/>
			<path id="XMLID_268_" class="st1" d="M97.7,157.9h-2v5.4h-1.9v-5.4h-2v-1.6h6V157.9z"/>
			<path id="XMLID_266_" class="st1" d="M108.7,156.2v4.1c0,2-1.4,3-3.1,3c-1.7,0-3.1-1-3.1-3v-4.1h1.9c0,0,0,3.4,0,4.2
				c0,0.8,0.5,1.3,1.2,1.3c0.6,0,1.2-0.4,1.2-1.3c0-0.8,0-4.2,0-4.2H108.7z"/>
			<path id="XMLID_263_" class="st1" d="M120.6,159.7c0,1.9-1.3,3.5-3.9,3.5H114v-7h2.8C119.3,156.2,120.6,157.9,120.6,159.7z
				 M118.8,159.7c0-1-0.6-1.9-2.2-1.9h-0.7v3.8h0.7C118.2,161.6,118.8,160.8,118.8,159.7z"/>
			<path id="XMLID_261_" class="st1" d="M127.6,156.2v7h-1.9v-7H127.6z"/>
			<path id="XMLID_258_" class="st1" d="M140.2,159.7c0,2-1.7,3.6-3.8,3.6c-2,0-3.8-1.6-3.8-3.6c0-2,1.7-3.7,3.8-3.7
				C138.5,156.1,140.2,157.7,140.2,159.7z M138.4,159.7c0-1.1-0.9-1.9-1.9-1.9c-1.1,0-1.9,0.9-1.9,1.9c0,1.1,0.9,1.9,1.9,1.9
				C137.5,161.6,138.4,160.8,138.4,159.7z"/>
			<path id="XMLID_256_" class="st1" d="M164.8,158.9v3.6c-0.7,0.5-1.9,0.9-2.8,0.9c-2.3,0-4-1.5-4-3.6c0-2.1,1.8-3.7,4.1-3.7
				c0.9,0,1.7,0.3,2.4,0.9l-0.9,1.3c-0.4-0.3-0.9-0.5-1.4-0.5c-1.2,0-2.2,0.9-2.2,2c0,1.1,0.9,2,2.1,2c0.3,0,0.6-0.1,1-0.1v-1h-1.6
				v-1.6H164.8z"/>
			<path id="XMLID_253_" class="st1" d="M172.6,161h-0.7v2.2H170v-7h2.9c1.7,0,2.7,1,2.7,2.4c0,0.8-0.4,1.6-1.1,2l1.5,2.6h-2.1
				L172.6,161z M171.9,159.4h0.9c0.8,0,1.1-0.3,1.1-0.8c0-0.4-0.3-0.7-1.1-0.7h-0.9V159.4z"/>
			<path id="XMLID_249_" class="st1" d="M185.7,162h-2.2l-0.4,1.2h-2.1l2.6-7h2l2.6,7h-2.1L185.7,162z M185.3,155.4h-1.4l0.6-1.8
				h1.9L185.3,155.4z M185.1,160.4l-0.5-1.5l-0.5,1.5H185.1z"/>
			<path id="XMLID_247_" class="st1" d="M195.1,157.9v1.1h2.8v1.6h-2.8v2.7h-1.9v-7h5.1v1.6H195.1z"/>
			<path id="XMLID_245_" class="st1" d="M205.2,156.2v7h-1.9v-7H205.2z"/>
			<path id="XMLID_243_" class="st1" d="M215.7,161.2l0.9,1.3c-0.7,0.5-1.5,0.9-2.4,0.9c-2.3,0-4-1.6-4-3.6c0-2,1.7-3.7,4-3.7
				c0.9,0,1.7,0.3,2.4,0.9l-0.9,1.3c-0.4-0.3-0.9-0.5-1.4-0.5c-1.2,0-2.1,0.8-2.1,1.9c0,1.1,0.9,1.9,2.1,1.9
				C214.8,161.7,215.2,161.5,215.7,161.2z"/>
			<path id="XMLID_240_" class="st1" d="M228.8,159.7c0,2-1.7,3.6-3.8,3.6c-2,0-3.8-1.6-3.8-3.6c0-2,1.7-3.7,3.8-3.7
				C227,156.1,228.8,157.7,228.8,159.7z M226.9,159.7c0-1.1-0.9-1.9-1.9-1.9c-1.1,0-1.9,0.9-1.9,1.9c0,1.1,0.9,1.9,1.9,1.9
				C226.1,161.6,226.9,160.8,226.9,159.7z"/>
		</g>
	</g>
</g>
</svg>
